<svg width="70" height="70" viewBox="0 0 70 70" fill="none" xmlns="http://www.w3.org/2000/svg">
<circle cx="35" cy="35" r="35" fill="#F5F9FC"/>
<path d="M38.9844 21.3906C40.0781 22.4844 40.625 23.8125 40.625 25.375C40.625 26.9375 40.0781 28.2656 38.9844 29.3594C37.8906 30.4531 36.5625 31 35 31C33.4375 31 32.1094 30.4531 31.0156 29.3594C29.9219 28.2656 29.375 26.9375 29.375 25.375C29.375 23.8125 29.9219 22.4844 31.0156 21.3906C32.1094 20.2969 33.4375 19.75 35 19.75C36.5625 19.75 37.8906 20.2969 38.9844 21.3906ZM33.7109 33.8711C33.9453 34.0273 34.0625 34.2617 34.0625 34.5742V48.9883C34.0625 49.2617 33.9258 49.4766 33.6523 49.6328C33.418 49.7891 33.1641 49.7891 32.8906 49.6328C30.1562 48.2656 26.3672 47.4648 21.5234 47.2305C21.0938 47.1914 20.7227 47.0156 20.4102 46.7031C20.1367 46.4297 20 46.0781 20 45.6484V32.582C20 32.1133 20.1758 31.7227 20.5273 31.4102C20.8789 31.0977 21.2891 30.9609 21.7578 31C27.0703 31.3125 31.0547 32.2695 33.7109 33.8711ZM48.2422 31C48.5547 31 48.8477 31.0781 49.1211 31.2344C49.3945 31.3516 49.6094 31.5273 49.7656 31.7617C49.9219 31.9961 50 32.2695 50 32.582V45.6484C50 46.0781 49.8438 46.4297 49.5312 46.7031C49.2578 47.0156 48.9062 47.1914 48.4766 47.2305C43.6328 47.5039 39.8633 48.3047 37.168 49.6328C36.9727 49.75 36.7773 49.7891 36.582 49.75C36.3867 49.7109 36.2305 49.6133 36.1133 49.457C35.9961 49.3008 35.9375 49.1445 35.9375 48.9883V34.5742C35.9375 34.2617 36.0547 34.0273 36.2891 33.8711C38.9453 32.2695 42.9297 31.3125 48.2422 31Z" fill="black" fill-opacity="0.8"/>
</svg>
