<svg width="96" height="29" viewBox="0 0 96 29" fill="none" xmlns="http://www.w3.org/2000/svg">
<path d="M17.565 4.62496H11.025V23H6.99001V4.62496H0.450012V1.30996H17.565V4.62496Z" fill="#F5F9FC"/>
<path d="M20.2957 10.28C20.7757 9.35996 21.3457 8.63996 22.0057 8.11996C22.6657 7.58996 23.4457 7.32496 24.3457 7.32496C25.0557 7.32496 25.6257 7.47996 26.0557 7.78996L25.8157 10.565C25.7657 10.745 25.6907 10.875 25.5907 10.955C25.5007 11.025 25.3757 11.06 25.2157 11.06C25.0657 11.06 24.8407 11.035 24.5407 10.985C24.2507 10.935 23.9657 10.91 23.6857 10.91C23.2757 10.91 22.9107 10.97 22.5907 11.09C22.2707 11.21 21.9807 11.385 21.7207 11.615C21.4707 11.835 21.2457 12.105 21.0457 12.425C20.8557 12.745 20.6757 13.11 20.5057 13.52V23H16.8007V7.60996H18.9757C19.3557 7.60996 19.6207 7.67996 19.7707 7.81996C19.9207 7.94996 20.0207 8.18996 20.0707 8.53996L20.2957 10.28Z" fill="#F5F9FC"/>
<path d="M35.917 16.43C34.847 16.48 33.947 16.575 33.217 16.715C32.487 16.845 31.902 17.015 31.462 17.225C31.022 17.435 30.707 17.68 30.517 17.96C30.327 18.24 30.232 18.545 30.232 18.875C30.232 19.525 30.422 19.99 30.802 20.27C31.192 20.55 31.697 20.69 32.317 20.69C33.077 20.69 33.732 20.555 34.282 20.285C34.842 20.005 35.387 19.585 35.917 19.025V16.43ZM27.427 9.75496C29.197 8.13496 31.327 7.32496 33.817 7.32496C34.717 7.32496 35.522 7.47496 36.232 7.77496C36.942 8.06496 37.542 8.47496 38.032 9.00496C38.522 9.52496 38.892 10.15 39.142 10.88C39.402 11.61 39.532 12.41 39.532 13.28V23H37.852C37.502 23 37.232 22.95 37.042 22.85C36.852 22.74 36.702 22.525 36.592 22.205L36.262 21.095C35.872 21.445 35.492 21.755 35.122 22.025C34.752 22.285 34.367 22.505 33.967 22.685C33.567 22.865 33.137 23 32.677 23.09C32.227 23.19 31.727 23.24 31.177 23.24C30.527 23.24 29.927 23.155 29.377 22.985C28.827 22.805 28.352 22.54 27.952 22.19C27.552 21.84 27.242 21.405 27.022 20.885C26.802 20.365 26.692 19.76 26.692 19.07C26.692 18.68 26.757 18.295 26.887 17.915C27.017 17.525 27.227 17.155 27.517 16.805C27.817 16.455 28.202 16.125 28.672 15.815C29.142 15.505 29.717 15.235 30.397 15.005C31.087 14.775 31.887 14.59 32.797 14.45C33.707 14.3 34.747 14.21 35.917 14.18V13.28C35.917 12.25 35.697 11.49 35.257 11C34.817 10.5 34.182 10.25 33.352 10.25C32.752 10.25 32.252 10.32 31.852 10.46C31.462 10.6 31.117 10.76 30.817 10.94C30.517 11.11 30.242 11.265 29.992 11.405C29.752 11.545 29.482 11.615 29.182 11.615C28.922 11.615 28.702 11.55 28.522 11.42C28.342 11.28 28.197 11.12 28.087 10.94L27.427 9.75496Z" fill="#F5F9FC"/>
<path d="M56.5449 7.60996L50.4399 23H47.0799L40.9749 7.60996H44.0349C44.3149 7.60996 44.5449 7.67496 44.7249 7.80496C44.9149 7.93496 45.0399 8.09996 45.0999 8.29996L48.0699 16.52C48.2299 17 48.3699 17.47 48.4899 17.93C48.6099 18.39 48.7149 18.85 48.8049 19.31C48.9049 18.85 49.0149 18.39 49.1349 17.93C49.2549 17.47 49.3999 17 49.5699 16.52L52.5999 8.29996C52.6699 8.09996 52.7949 7.93496 52.9749 7.80496C53.1549 7.67496 53.3699 7.60996 53.6199 7.60996H56.5449Z" fill="#F5F9FC"/>
<path d="M67.9657 13.535C67.9657 13.055 67.8957 12.605 67.7557 12.185C67.6257 11.755 67.4257 11.38 67.1557 11.06C66.8857 10.74 66.5407 10.49 66.1207 10.31C65.7107 10.12 65.2307 10.025 64.6807 10.025C63.6107 10.025 62.7657 10.33 62.1457 10.94C61.5357 11.55 61.1457 12.415 60.9757 13.535H67.9657ZM60.9007 15.77C60.9607 16.56 61.1007 17.245 61.3207 17.825C61.5407 18.395 61.8307 18.87 62.1907 19.25C62.5507 19.62 62.9757 19.9 63.4657 20.09C63.9657 20.27 64.5157 20.36 65.1157 20.36C65.7157 20.36 66.2307 20.29 66.6607 20.15C67.1007 20.01 67.4807 19.855 67.8007 19.685C68.1307 19.515 68.4157 19.36 68.6557 19.22C68.9057 19.08 69.1457 19.01 69.3757 19.01C69.6857 19.01 69.9157 19.125 70.0657 19.355L71.1307 20.705C70.7207 21.185 70.2607 21.59 69.7507 21.92C69.2407 22.24 68.7057 22.5 68.1457 22.7C67.5957 22.89 67.0307 23.025 66.4507 23.105C65.8807 23.185 65.3257 23.225 64.7857 23.225C63.7157 23.225 62.7207 23.05 61.8007 22.7C60.8807 22.34 60.0807 21.815 59.4007 21.125C58.7207 20.425 58.1857 19.565 57.7957 18.545C57.4057 17.515 57.2107 16.325 57.2107 14.975C57.2107 13.925 57.3807 12.94 57.7207 12.02C58.0607 11.09 58.5457 10.285 59.1757 9.60496C59.8157 8.91496 60.5907 8.36996 61.5007 7.96996C62.4207 7.56996 63.4557 7.36996 64.6057 7.36996C65.5757 7.36996 66.4707 7.52496 67.2907 7.83496C68.1107 8.14496 68.8157 8.59996 69.4057 9.19996C69.9957 9.78996 70.4557 10.52 70.7857 11.39C71.1257 12.25 71.2957 13.235 71.2957 14.345C71.2957 14.905 71.2357 15.285 71.1157 15.485C70.9957 15.675 70.7657 15.77 70.4257 15.77H60.9007Z" fill="#F5F9FC"/>
<path d="M77.8261 0.709961V23H74.1211V0.709961H77.8261Z" fill="#F5F9FC"/>
<path d="M95.4975 7.60996L87.1125 27.23C87.0025 27.49 86.8575 27.685 86.6775 27.815C86.5075 27.955 86.2425 28.025 85.8825 28.025H83.1225L86.0025 21.845L79.7775 7.60996H83.0325C83.3225 7.60996 83.5475 7.67996 83.7075 7.81996C83.8775 7.95996 84.0025 8.11996 84.0825 8.29996L87.3525 16.28C87.4625 16.55 87.5525 16.82 87.6225 17.09C87.7025 17.36 87.7775 17.635 87.8475 17.915C87.9375 17.635 88.0275 17.36 88.1175 17.09C88.2075 16.81 88.3075 16.535 88.4175 16.265L91.5075 8.29996C91.5875 8.09996 91.7175 7.93496 91.8975 7.80496C92.0875 7.67496 92.2975 7.60996 92.5275 7.60996H95.4975Z" fill="#F5F9FC"/>
</svg>
