<svg width="70" height="70" viewBox="0 0 70 70" fill="none" xmlns="http://www.w3.org/2000/svg">
<circle cx="35" cy="35" r="35" fill="#F5F9FC"/>
<path d="M34.0781 49.1641C33.1406 47.7969 32.0664 46.2539 30.8555 44.5352C29.6836 42.8164 28.8438 41.6055 28.3359 40.9023C27.8281 40.1992 27.2422 39.3398 26.5781 38.3242C25.9141 37.2695 25.4648 36.5273 25.2305 36.0977C25.0352 35.668 24.8008 35.1211 24.5273 34.457C24.293 33.793 24.1367 33.2266 24.0586 32.7578C24.0195 32.25 24 31.6641 24 31C24 27.875 25.0938 25.2188 27.2812 23.0312C29.4688 20.8438 32.125 19.75 35.25 19.75C38.375 19.75 41.0312 20.8438 43.2188 23.0312C45.4062 25.2188 46.5 27.875 46.5 31C46.5 31.6641 46.4609 32.25 46.3828 32.7578C46.3438 33.2266 46.1875 33.793 45.9141 34.457C45.6797 35.1211 45.4453 35.668 45.2109 36.0977C45.0156 36.5273 44.5859 37.2695 43.9219 38.3242C43.2578 39.3398 42.6719 40.1992 42.1641 40.9023C41.6562 41.6055 40.7969 42.8164 39.5859 44.5352C38.4141 46.2539 37.3594 47.7969 36.4219 49.1641C36.1484 49.5547 35.7578 49.75 35.25 49.75C34.7422 49.75 34.3516 49.5547 34.0781 49.1641ZM31.9102 34.3398C32.8477 35.2383 33.9609 35.6875 35.25 35.6875C36.5391 35.6875 37.6328 35.2383 38.5312 34.3398C39.4688 33.4023 39.9375 32.2891 39.9375 31C39.9375 29.7109 39.4688 28.6172 38.5312 27.7188C37.6328 26.7812 36.5391 26.3125 35.25 26.3125C33.9609 26.3125 32.8477 26.7812 31.9102 27.7188C31.0117 28.6172 30.5625 29.7109 30.5625 31C30.5625 32.2891 31.0117 33.4023 31.9102 34.3398Z" fill="black" fill-opacity="0.8"/>
</svg>
