<svg width="70" height="70" viewBox="0 0 70 70" fill="none" xmlns="http://www.w3.org/2000/svg">
<circle cx="35" cy="35" r="35" fill="#F5F9FC"/>
<path d="M40.3984 32.582C38.9531 34.0273 37.1953 34.75 35.125 34.75C33.0547 34.75 31.2773 34.0273 29.793 32.582C28.3477 31.0977 27.625 29.3203 27.625 27.25C27.625 25.1797 28.3477 23.4219 29.793 21.9766C31.2773 20.4922 33.0547 19.75 35.125 19.75C37.1953 19.75 38.9531 20.4922 40.3984 21.9766C41.8828 23.4219 42.625 25.1797 42.625 27.25C42.625 29.3203 41.8828 31.0977 40.3984 32.582ZM40.3984 36.625C42.5469 36.625 44.3828 37.4062 45.9062 38.9688C47.4688 40.4922 48.25 42.3281 48.25 44.4766V46.9375C48.25 47.7188 47.9766 48.3828 47.4297 48.9297C46.8828 49.4766 46.2188 49.75 45.4375 49.75H24.8125C24.0312 49.75 23.3672 49.4766 22.8203 48.9297C22.2734 48.3828 22 47.7188 22 46.9375V44.4766C22 42.3281 22.7617 40.4922 24.2852 38.9688C25.8477 37.4062 27.7031 36.625 29.8516 36.625H30.8477C32.2148 37.25 33.6406 37.5625 35.125 37.5625C36.6094 37.5625 38.0352 37.25 39.4023 36.625H40.3984Z" fill="black" fill-opacity="0.8"/>
</svg>
